<?xml version="1.0" encoding="utf-8"?>
<!-- Generator: Adobe Illustrator 27.1.1, SVG Export Plug-In . SVG Version: 6.00 Build 0)  -->
<svg version="1.1" id="Layer_1" xmlns="http://www.w3.org/2000/svg" xmlns:xlink="http://www.w3.org/1999/xlink" x="0px" y="0px"
	 viewBox="0 0 133.48 113.79" style="enable-background:new 0 0 133.48 113.79;" xml:space="preserve">
<style type="text/css">
	.st0{fill:#C09D6D;}
</style>
<g>
	<g>
		<g>
			<path class="st0" d="M12.9,88.46H6.14l-1.09,3.17H0l6.94-18.22h5.17l6.93,18.22h-5.05L12.9,88.46z M11.65,84.86l-2.13-6.07
				l-2.13,6.07H11.65z"/>
			<path class="st0" d="M36.27,91.62h-5.9l-4.52-7.01v7.01h-4.74V73.41h7.37c1.01,0,1.9,0.15,2.66,0.45
				c0.76,0.3,1.38,0.71,1.87,1.22s0.86,1.11,1.11,1.79s0.38,1.4,0.38,2.17c0,1.39-0.33,2.51-1,3.37c-0.67,0.86-1.66,1.45-2.96,1.75
				L36.27,91.62z M25.86,81.55h0.89c0.93,0,1.65-0.19,2.15-0.58s0.75-0.94,0.75-1.67s-0.25-1.28-0.75-1.67s-1.22-0.58-2.15-0.58
				h-0.89V81.55z"/>
			<path class="st0" d="M37.43,91.62l3.09-18.22h4.69l3.65,9.71l3.62-9.71h4.69l3.09,18.22h-4.71l-1.57-10.49l-4.3,10.49h-1.88
				l-4.08-10.49l-1.57,10.49H37.43z"/>
			<path class="st0" d="M62.44,82.52c0-1.35,0.25-2.61,0.75-3.78c0.5-1.17,1.19-2.19,2.08-3.06c0.89-0.87,1.95-1.55,3.18-2.04
				s2.59-0.74,4.07-0.74c1.47,0,2.82,0.25,4.06,0.74s2.31,1.17,3.2,2.04c0.89,0.87,1.59,1.89,2.09,3.06
				c0.5,1.17,0.75,2.43,0.75,3.78s-0.25,2.61-0.75,3.78c-0.5,1.17-1.2,2.19-2.09,3.06c-0.89,0.87-1.96,1.55-3.2,2.04
				s-2.59,0.74-4.06,0.74c-1.48,0-2.84-0.25-4.07-0.74s-2.29-1.17-3.18-2.04c-0.89-0.87-1.58-1.89-2.08-3.06
				C62.69,85.13,62.44,83.87,62.44,82.52z M67.39,82.52c0,0.72,0.14,1.39,0.41,2.01c0.27,0.61,0.64,1.14,1.11,1.59
				c0.47,0.45,1.01,0.8,1.63,1.05s1.28,0.38,1.97,0.38c0.69,0,1.35-0.12,1.97-0.38c0.62-0.25,1.17-0.6,1.64-1.05
				s0.85-0.98,1.12-1.59c0.28-0.61,0.41-1.28,0.41-2.01s-0.14-1.39-0.41-2.01c-0.27-0.61-0.65-1.14-1.12-1.59s-1.02-0.8-1.64-1.05
				c-0.62-0.25-1.28-0.38-1.97-0.38c-0.69,0-1.35,0.12-1.97,0.38s-1.16,0.6-1.63,1.05c-0.47,0.45-0.84,0.98-1.11,1.59
				C67.53,81.12,67.39,81.79,67.39,82.52z"/>
			<path class="st0" d="M85.61,91.62V73.41h4.74l8.75,11.14V73.41h4.71v18.22h-4.71l-8.75-11.14v11.14H85.61z"/>
			<path class="st0" d="M112.36,73.41v18.22h-4.74V73.41H112.36z"/>
			<path class="st0" d="M127.34,88.46h-6.77l-1.09,3.17h-5.05l6.94-18.22h5.17l6.93,18.22h-5.05L127.34,88.46z M126.09,84.86
				l-2.13-6.07l-2.13,6.07H126.09z"/>
		</g>
		<g>
			<path class="st0" d="M21.15,108.5h3.74v0.3c0,0.68-0.08,1.28-0.24,1.8c-0.16,0.48-0.42,0.94-0.79,1.36
				c-0.84,0.95-1.91,1.42-3.21,1.42c-1.27,0-2.35-0.46-3.25-1.37c-0.9-0.92-1.35-2.02-1.35-3.3c0-1.31,0.46-2.43,1.38-3.34
				c0.92-0.92,2.04-1.38,3.35-1.38c0.71,0,1.37,0.14,1.98,0.43c0.59,0.29,1.16,0.76,1.73,1.41l-0.97,0.93
				c-0.74-0.99-1.65-1.48-2.71-1.48c-0.96,0-1.76,0.33-2.41,0.99c-0.65,0.65-0.97,1.46-0.97,2.44c0,1.01,0.36,1.84,1.08,2.49
				c0.68,0.61,1.41,0.91,2.2,0.91c0.67,0,1.28-0.23,1.81-0.68c0.54-0.46,0.83-1,0.9-1.64h-2.26V108.5z"/>
			<path class="st0" d="M29.67,109.36l2.8,3.86H30.8l-2.58-3.7h-0.25v3.7h-1.37v-9.05h1.6c1.2,0,2.06,0.22,2.59,0.67
				c0.59,0.5,0.88,1.16,0.88,1.98c0,0.64-0.18,1.19-0.55,1.65S30.27,109.23,29.67,109.36z M27.97,108.32h0.43
				c1.29,0,1.94-0.49,1.94-1.48c0-0.93-0.63-1.39-1.89-1.39h-0.49V108.32z"/>
			<path class="st0" d="M33.17,108.65c0-1.27,0.47-2.37,1.4-3.28c0.93-0.91,2.05-1.37,3.35-1.37c1.29,0,2.39,0.46,3.32,1.38
				c0.93,0.92,1.39,2.03,1.39,3.32c0,1.3-0.46,2.4-1.39,3.31c-0.93,0.91-2.06,1.37-3.38,1.37c-1.17,0-2.22-0.4-3.15-1.21
				C33.69,111.27,33.17,110.1,33.17,108.65z M34.55,108.66c0,1,0.34,1.82,1.01,2.47c0.67,0.64,1.44,0.97,2.31,0.97
				c0.95,0,1.75-0.33,2.4-0.98c0.65-0.66,0.98-1.47,0.98-2.43c0-0.96-0.32-1.77-0.97-2.43c-0.64-0.66-1.43-0.98-2.38-0.98
				c-0.94,0-1.74,0.33-2.38,0.98C34.88,106.91,34.55,107.71,34.55,108.66z"/>
			<path class="st0" d="M44.41,104.16l2.36,6.05l2.46-6.49l2.36,6.49l2.5-6.05h1.48l-4.04,9.62l-2.33-6.41l-2.43,6.42l-3.84-9.63
				H44.41z"/>
			<path class="st0" d="M62.22,109.3l-2.95-5.14h1.57l2.07,3.62l2.07-3.62h1.57l-2.96,5.14v3.91h-1.37V109.3z"/>
			<path class="st0" d="M66.68,108.65c0-1.27,0.47-2.37,1.4-3.28c0.93-0.91,2.05-1.37,3.35-1.37c1.29,0,2.4,0.46,3.32,1.38
				c0.93,0.92,1.39,2.03,1.39,3.32c0,1.3-0.46,2.4-1.39,3.31c-0.93,0.91-2.06,1.37-3.38,1.37c-1.17,0-2.22-0.4-3.15-1.21
				C67.2,111.27,66.68,110.1,66.68,108.65z M68.06,108.66c0,1,0.34,1.82,1.01,2.47c0.67,0.64,1.44,0.97,2.31,0.97
				c0.95,0,1.75-0.33,2.4-0.98c0.65-0.66,0.98-1.47,0.98-2.43c0-0.96-0.32-1.77-0.97-2.43c-0.64-0.66-1.43-0.98-2.38-0.98
				c-0.94,0-1.74,0.33-2.38,0.98C68.38,106.91,68.06,107.71,68.06,108.66z"/>
			<path class="st0" d="M79.22,104.16v5.45c0,0.78,0.13,1.35,0.38,1.71c0.38,0.52,0.91,0.78,1.6,0.78c0.69,0,1.23-0.26,1.61-0.78
				c0.25-0.35,0.38-0.92,0.38-1.71v-5.45h1.37v5.82c0,0.95-0.3,1.74-0.89,2.36c-0.67,0.69-1.49,1.03-2.46,1.03s-1.79-0.34-2.46-1.03
				c-0.59-0.62-0.89-1.4-0.89-2.36v-5.82H79.22z"/>
			<path class="st0" d="M89.79,109.36l2.8,3.86h-1.67l-2.58-3.7h-0.25v3.7h-1.37v-9.05h1.6c1.2,0,2.06,0.22,2.59,0.67
				c0.59,0.5,0.88,1.16,0.88,1.98c0,0.64-0.18,1.19-0.55,1.65S90.39,109.23,89.79,109.36z M88.09,108.32h0.43
				c1.29,0,1.94-0.49,1.94-1.48c0-0.93-0.63-1.39-1.89-1.39h-0.49V108.32z"/>
			<path class="st0" d="M99.06,105.51l-1.11,0.66c-0.21-0.36-0.4-0.59-0.59-0.7c-0.2-0.12-0.45-0.19-0.76-0.19
				c-0.38,0-0.69,0.11-0.94,0.32c-0.25,0.21-0.38,0.48-0.38,0.8c0,0.44,0.33,0.8,0.98,1.07l0.9,0.37c0.73,0.3,1.27,0.66,1.61,1.09
				s0.51,0.95,0.51,1.57c0,0.83-0.28,1.52-0.83,2.06c-0.56,0.55-1.25,0.82-2.08,0.82c-0.79,0-1.43-0.23-1.95-0.7
				c-0.5-0.46-0.82-1.12-0.94-1.96l1.38-0.3c0.06,0.53,0.17,0.9,0.33,1.1c0.28,0.39,0.69,0.59,1.23,0.59c0.43,0,0.78-0.14,1.06-0.43
				s0.42-0.65,0.42-1.08c0-0.18-0.03-0.34-0.07-0.48s-0.12-0.28-0.23-0.4s-0.24-0.24-0.4-0.35s-0.36-0.21-0.59-0.31l-0.87-0.36
				c-1.24-0.52-1.86-1.29-1.86-2.3c0-0.68,0.26-1.25,0.78-1.71c0.52-0.46,1.17-0.69,1.94-0.69
				C97.66,103.99,98.48,104.5,99.06,105.51z"/>
			<path class="st0" d="M105.94,105.45h-3.63v2.17h3.52v1.28h-3.52v3.02h3.63v1.28h-4.99v-9.05h4.99V105.45z"/>
			<path class="st0" d="M109.09,104.16v7.76h2.66v1.28h-4.03v-9.05H109.09z"/>
			<path class="st0" d="M117.57,105.45h-3.15v2.17h3.04v1.28h-3.04v4.31h-1.37v-9.05h4.52V105.45z"/>
		</g>
	</g>
	<g>
		<g>
			<g>
				<g>
					<path class="st0" d="M52.48,54.35c-0.88,0-1.8-0.07-2.74-0.2c-4.03-0.58-8.01-2.43-10.4-4.82c-1.26-1.26-3.37-4.27-7.2-15.84
						c-2.03-6.15-3.6-11.88-3.62-11.94c-0.26-0.94,0.01-1.95,0.7-2.64c0.69-0.69,1.7-0.96,2.64-0.7c0.06,0.02,5.79,1.58,11.94,3.62
						c11.57,3.83,14.58,5.94,15.84,7.2c0,0,0,0,0,0c2.39,2.39,4.24,6.38,4.82,10.4c0.7,4.8-0.4,8.93-3.09,11.62
						C59.2,53.22,56.11,54.35,52.48,54.35z M35.09,24.79c2.8,9.44,6.24,18.85,8.09,20.7c1.58,1.58,4.46,2.87,7.34,3.28
						c3.02,0.44,5.57-0.13,6.99-1.56c1.43-1.43,2-3.98,1.56-6.99c-0.42-2.88-1.71-5.76-3.28-7.34
						C53.94,31.03,44.53,27.58,35.09,24.79z"/>
				</g>
				<g>
					<path class="st0" d="M59.44,51.85c-0.7,0-1.39-0.27-1.92-0.8L45.71,39.25c-1.06-1.06-1.06-2.78,0-3.84
						c1.06-1.06,2.78-1.06,3.84,0l11.81,11.81c1.06,1.06,1.06,2.78,0,3.84C60.83,51.59,60.14,51.85,59.44,51.85z"/>
				</g>
			</g>
			<g>
				<g>
					<path class="st0" d="M81,54.35c-3.62,0-6.72-1.13-8.88-3.3c-2.69-2.69-3.79-6.82-3.09-11.62c0.58-4.03,2.43-8.01,4.82-10.4
						c1.26-1.26,4.27-3.37,15.84-7.2c6.15-2.03,11.88-3.6,11.94-3.62c0.94-0.26,1.95,0.01,2.64,0.7c0.69,0.69,0.96,1.7,0.7,2.64
						c-0.02,0.06-1.58,5.79-3.62,11.94c-3.83,11.57-5.94,14.58-7.2,15.84c-2.39,2.39-6.38,4.24-10.4,4.82
						C82.79,54.29,81.88,54.35,81,54.35z M98.39,24.79c-9.44,2.8-18.85,6.24-20.7,8.09c-1.58,1.58-2.87,4.46-3.28,7.34
						c-0.44,3.02,0.13,5.57,1.56,6.99c1.43,1.43,3.98,2,6.99,1.56c2.88-0.42,5.76-1.71,7.34-3.28
						C92.14,43.64,95.59,34.23,98.39,24.79z"/>
				</g>
				<g>
					<path class="st0" d="M74.04,51.85c-0.7,0-1.39-0.27-1.92-0.8c-1.06-1.06-1.06-2.78,0-3.84l11.81-11.81
						c1.06-1.06,2.78-1.06,3.84,0c1.06,1.06,1.06,2.78,0,3.84L75.96,51.06C75.43,51.59,74.73,51.85,74.04,51.85z"/>
				</g>
			</g>
		</g>
		<g>
			<path class="st0" d="M66.74,25.01c-6.9,0-12.51-5.61-12.51-12.51S59.84,0,66.74,0s12.51,5.61,12.51,12.51
				S73.64,25.01,66.74,25.01z M66.74,5.43c-3.9,0-7.07,3.17-7.07,7.07c0,3.9,3.17,7.07,7.07,7.07c3.9,0,7.07-3.17,7.07-7.07
				C73.81,8.61,70.64,5.43,66.74,5.43z"/>
		</g>
	</g>
</g>
</svg>
